<svg width="21" height="20" viewBox="0 0 21 20" fill="none" xmlns="http://www.w3.org/2000/svg">
<g clip-path="url(#clip0_6231_2765)">
<path d="M19.7808 3.15669C19.3222 2.69814 18.6873 2.43359 18.0347 2.43359C18.0347 1.79867 17.7702 1.18138 17.3116 0.722831C16.3593 -0.22955 14.7896 -0.22955 13.8372 0.722831C13.0083 1.53412 12.9025 2.78632 13.4668 3.7387L4.27813 12.9627C3.34338 12.3983 2.05591 12.4865 1.22698 13.3331C0.2746 14.2854 0.2746 15.8551 1.22698 16.8075C1.68553 17.266 2.32046 17.5306 2.97301 17.5306C2.97301 18.1832 3.23756 18.8181 3.69612 19.2766C4.6485 20.229 6.21816 20.229 7.17054 19.2766C8.08765 18.3595 8.12292 16.9133 7.34691 15.9609L16.4651 6.80749C17.4351 7.5835 18.8813 7.53059 19.7808 6.63112C20.7332 5.67874 20.7332 4.10908 19.7808 3.15669ZM18.9518 5.8022C18.458 6.29603 17.5938 6.31366 17.0824 5.8022C17.0118 5.73165 16.9765 5.69638 16.9236 5.62583C16.7296 5.34364 16.324 5.30837 16.0771 5.55528C16.0594 5.57292 6.11234 15.5553 6.07707 15.6082C5.86543 15.8727 5.9007 16.2608 6.18289 16.4548C6.83545 16.9309 6.90599 17.901 6.34162 18.4477C5.84779 18.9415 5.01887 18.9415 4.52504 18.4477C4.17231 18.095 4.04885 17.513 4.24285 17.0191C4.43686 16.5429 3.96067 16.0668 3.48448 16.2608C3.00829 16.4548 2.42628 16.3313 2.05591 15.9786C1.26225 15.1849 1.79135 13.774 2.99065 13.774C3.34338 13.774 3.67848 13.9151 3.92539 14.1444C4.15467 14.3736 4.52504 14.3736 4.75432 14.1444C15.3716 3.47415 14.719 4.16199 14.7896 4.02089C14.8954 3.79162 14.8425 3.52706 14.6661 3.3507C14.1723 2.85687 14.1723 2.02795 14.6661 1.53412C15.16 1.04029 15.9889 1.04029 16.4827 1.53412C16.8531 1.90449 16.9589 2.43359 16.7649 2.90978C16.712 3.03324 16.712 3.19197 16.7649 3.33306C16.8884 3.63288 17.2235 3.77398 17.5233 3.66816C17.9995 3.47415 18.5815 3.59761 18.9518 3.95035C19.4633 4.47945 19.4633 5.29073 18.9518 5.8022Z" fill="#961914"/>
<path d="M6.97252 7.23126C7.2018 7.46053 7.57217 7.46053 7.80144 7.23126C8.03072 7.00198 8.03072 6.63161 7.80144 6.40233L5.8085 4.40938C5.57922 4.18011 5.20885 4.18011 4.97957 4.40938C4.7503 4.63866 4.7503 5.00903 4.97957 5.23831L6.97252 7.23126Z" fill="#961914"/>
<path d="M2.6865 9.33004H5.49074C5.8082 9.33004 6.07275 9.06549 6.07275 8.74803C6.07275 8.43057 5.8082 8.16602 5.49074 8.16602H2.6865C2.36904 8.16602 2.10449 8.43057 2.10449 8.74803C2.10449 9.08312 2.36904 9.33004 2.6865 9.33004Z" fill="#961914"/>
<path d="M9.31834 5.52044C9.6358 5.52044 9.90035 5.25589 9.90035 4.93843V2.11656C9.90035 1.7991 9.6358 1.53455 9.31834 1.53455C9.00088 1.53455 8.73633 1.7991 8.73633 2.11656V4.93843C8.73633 5.25589 8.98324 5.52044 9.31834 5.52044Z" fill="#961914"/>
<path d="M14.0976 12.7691C13.8683 12.5398 13.4979 12.5398 13.2686 12.7691C13.0394 12.9984 13.0394 13.3688 13.2686 13.598L15.2616 15.591C15.3674 15.6968 15.5261 15.7674 15.6672 15.7674C16.1787 15.7674 16.4432 15.1324 16.0729 14.7621L14.0976 12.7691Z" fill="#961914"/>
<path d="M18.3834 10.6704H15.5615C15.244 10.6704 14.9795 10.935 14.9795 11.2524C14.9795 11.5699 15.244 11.8344 15.5615 11.8344H18.3657C18.6832 11.8344 18.9477 11.5699 18.9477 11.2524C18.9654 10.935 18.7008 10.6704 18.3834 10.6704Z" fill="#961914"/>
<path d="M11.7519 14.4799C11.4345 14.4799 11.1699 14.7444 11.1699 15.0619V17.8661C11.1699 18.1836 11.4345 18.4481 11.7519 18.4481C12.0694 18.4481 12.3339 18.1836 12.3339 17.8661V15.0619C12.3339 14.7444 12.0694 14.4799 11.7519 14.4799Z" fill="#961914"/>
</g>
<defs>
<clipPath id="clip0_6231_2765">
<rect width="20" height="20" fill="white" transform="translate(0.5)"/>
</clipPath>
</defs>
</svg>
